<svg xmlns="http://www.w3.org/2000/svg" viewBox="0 0 141.03 141.03"><defs><style>.cls-1{fill:#62e3c0;}</style></defs><title>head</title><g id="Layer_2" data-name="Layer 2"><g id="Layer_1-2" data-name="Layer 1"><path class="cls-1" d="M141,70.51A70.51,70.51,0,1,0,21.59,121.18a4.3,4.3,0,0,0,1.11,1,70.1,70.1,0,0,0,95.63,0,4.3,4.3,0,0,0,1.11-1A70.26,70.26,0,0,0,141,70.51ZM70.51,8.81a61.61,61.61,0,0,1,48.36,99.9c-3.82-12.33-14.74-22-29.55-26.42a32.16,32.16,0,1,0-37.63,0C36.89,86.74,26,96.39,22.15,108.71A61.61,61.61,0,0,1,70.51,8.81ZM47.16,56.3A23.35,23.35,0,1,1,70.51,79.6,23.35,23.35,0,0,1,47.16,56.3Zm-17.6,60.24c1.32-16.16,18.46-28.12,41-28.12s39.63,12,41,28.12a61.32,61.32,0,0,1-81.9,0Z"/></g></g></svg>